<?xml version="1.0" encoding="UTF-8"?>
<svg width="212px" height="32px" viewBox="0 0 212 32" version="1.1" xmlns="http://www.w3.org/2000/svg" xmlns:xlink="http://www.w3.org/1999/xlink">
    <title>Logo-Fabricants</title>
    <g id="Maquettes-LesFabricants--fvz-💥" stroke="none" stroke-width="1" fill="none" fill-rule="evenodd">
        <g id="LesFabricants---Homepage-Copy" transform="translate(-128.000000, -27.000000)">
            <g id="Header" transform="translate(0.000000, 0.000000)">
                <g id="Logo-Fabricants" transform="translate(128.000000, 27.000000)">
                    <g id="Label-Fabricants" transform="translate(47.000000, 1.000000)" fill="#323C52">
                        <path d="M70.5473098,2.70561093 C69.2471586,2.70561093 68.1892056,3.74174882 68.1892056,5.0168936 C68.1892056,6.31123838 69.2471586,7.363928 70.5473098,7.363928 C71.8474609,7.363928 72.9047486,6.31123838 72.9047486,5.0168936 C72.9047486,3.74174882 71.8474609,2.70561093 70.5473098,2.70561093" id="Fill-2"></path>
                        <path d="M27.639395,19.1713317 C27.639395,22.555166 25.0058238,25.2060901 21.6436623,25.2060901 C18.2615394,25.2060901 15.6126645,22.555166 15.6126645,19.1713317 C15.6126645,15.7868353 18.2615394,13.1352492 21.6436623,13.1352492 C25.0058238,13.1352492 27.639395,15.7868353 27.639395,19.1713317 L27.639395,19.1713317 Z M27.639395,10.9570423 C25.9280395,9.61436653 23.7768683,8.88344242 21.5059288,8.88344242 C15.7470711,8.88344242 11.2364649,13.4020629 11.2364649,19.1713317 C11.2364649,24.9392763 15.7470711,29.4578968 21.5059288,29.4578968 C23.7775337,29.4578968 25.9287049,28.7263106 27.639395,27.3836348 L27.639395,29.2526554 L32.0182561,29.2526554 L32.0182561,9.11781483 L27.639395,9.11781483 L27.639395,10.9570423 Z" id="Fill-4"></path>
                        <path d="M50.2720718,19.1713317 C50.2720718,22.555166 47.6231969,25.2060901 44.241074,25.2060901 C40.8596164,25.2060901 38.2100761,22.555166 38.2100761,19.1713317 C38.2100761,15.7868353 40.8596164,13.1352492 44.241074,13.1352492 C47.6231969,13.1352492 50.2720718,15.7868353 50.2720718,19.1713317 M44.3455385,8.88344242 C42.0619568,8.88344242 39.911451,9.62297343 38.2100761,10.9795527 L38.2100761,4.30722191 L33.8684763,4.30722191 L33.8684763,29.2526554 L38.2100761,29.2526554 L38.2100761,27.3624486 C39.911451,28.7183658 42.0619568,29.4578968 44.3455385,29.4578968 C50.1030655,29.4578968 54.6136716,24.9392763 54.6136716,19.1713317 C54.6136716,13.4020629 50.1030655,8.88344242 44.3455385,8.88344242" id="Fill-6"></path>
                        <path d="M60.9954574,10.2831886 L60.9954574,9.02194724 L56.6538576,9.02194724 L56.6531922,29.2521258 L60.9941267,29.2521258 L60.9954574,18.2068297 C60.9954574,13.7530919 64.1247362,13.2724298 65.4701331,13.2724298 L66.7756073,13.2724298 L66.7756073,9.02194724 L65.4701331,9.02194724 C63.7168587,9.02194724 62.2150977,9.44567137 60.9954574,10.2831886" id="Fill-8"></path>
                        <polygon id="Fill-10" points="68.3759775 29.252192 72.7182428 29.252192 72.7182428 9.02135138 68.3759775 9.02135138"></polygon>
                        <path d="M89.5437553,22.3135771 C88.574963,24.1249977 86.6773013,25.2061563 84.4669113,25.2061563 C81.0282312,25.2061563 78.4359135,22.6115081 78.4359135,19.1713979 C78.4359135,15.7306256 81.0282312,13.1353154 84.4669113,13.1353154 C86.7085741,13.1353154 88.6009128,14.217136 89.4060218,15.9597015 L90.00819,17.2619911 L93.6923951,15.1175498 L93.1966876,14.0469843 C91.7195455,10.8617706 88.3740185,8.88350863 84.4669113,8.88350863 C78.5330589,8.88350863 74.0583832,13.3067912 74.0583832,19.1713979 C74.0583832,25.0353425 78.5330589,29.457963 84.4669113,29.457963 C88.2848577,29.457963 91.672969,27.5134665 93.309802,24.3838667 L93.8787013,23.2947633 L90.1885078,21.111922 L89.5437553,22.3135771 Z" id="Fill-12"></path>
                        <path d="M111.260205,19.1713317 C111.260205,22.555166 108.625968,25.2060901 105.263141,25.2060901 C101.881018,25.2060901 99.2321434,22.555166 99.2321434,19.1713317 C99.2321434,15.7868353 101.881018,13.1352492 105.263141,13.1352492 C108.625968,13.1352492 111.260205,15.7868353 111.260205,19.1713317 L111.260205,19.1713317 Z M111.260205,10.9365182 C109.558165,9.59053205 107.452905,8.88344242 105.125408,8.88344242 C99.3665501,8.88344242 94.8559439,13.4020629 94.8559439,19.1713317 C94.8559439,24.9392763 99.3665501,29.4578968 105.125408,29.4578968 C107.452905,29.4578968 109.558165,28.7508072 111.260205,27.4054831 L111.260205,29.0798554 L115.636404,29.0798554 L115.636404,9.26148379 L111.260205,9.26148379 L111.260205,10.9365182 Z" id="Fill-13"></path>
                        <path d="M126.717897,8.88344242 C124.814912,8.88344242 123.174087,9.36807689 121.829355,10.3274148 L121.829355,9.26148379 L117.48709,9.26148379 L117.48709,29.0798554 L121.829355,29.0798554 L121.829355,18.6893455 C121.829355,15.1075525 123.516092,13.1352492 126.580164,13.1352492 C129.019444,13.1352492 130.362845,14.5322146 130.362845,17.0699249 L130.362845,29.0798554 L134.73971,29.0798554 L134.73971,17.0699249 C134.73971,12.173263 131.515947,8.88344242 126.717897,8.88344242" id="Fill-14"></path>
                        <path d="M143.119763,4.3071557 L138.743563,4.3071557 L138.743563,9.26141758 L134.935597,9.26141758 L134.935597,13.548314 L138.743563,13.548314 L138.743563,23.440286 C138.743563,25.4721756 139.329097,27.0022169 140.482865,27.9900238 C141.49291,28.8526996 142.868915,29.2724513 144.689392,29.2724513 C145.428629,29.2724513 146.262349,29.2029341 147.167265,29.0652237 L148.276452,28.8970582 L148.276452,24.8120929 L146.855867,24.9358997 C145.809226,25.0279273 143.859664,25.2000653 143.409868,24.7902446 C143.322703,24.7107963 143.119763,24.4214722 143.119763,23.440286 L143.119763,13.548314 L148.276452,13.548314 L148.276452,9.26141758 L143.119763,9.26141758 L143.119763,4.3071557 Z" id="Fill-15"></path>
                        <path d="M157.723041,17.123089 L157.639869,17.4435304 L157.722376,17.123089 C155.02759,16.4358614 154.07144,16.0227304 154.07144,15.0726615 C154.07144,13.7346202 155.50134,13.1354478 156.918598,13.1354478 C158.475585,13.1354478 159.678591,13.809434 160.137703,14.9389236 L160.697952,16.3193373 L164.471983,14.1735719 L163.994907,13.1016823 C162.821843,10.4606893 160.17696,8.88364104 156.918598,8.88364104 C152.752658,8.88364104 149.728509,11.486234 149.728509,15.0726615 C149.728509,19.3966337 153.64227,20.4036406 156.500074,21.1391992 C159.242102,21.8449647 160.215552,22.2726612 160.215552,23.2684129 C160.215552,25.112937 157.583977,25.2062887 157.056331,25.2062887 C155.096789,25.2062887 153.657574,24.4058474 153.207778,23.0651577 L152.700093,21.550344 L148.87017,23.7643025 L149.258086,24.7931577 C150.359289,27.7142058 153.27365,29.4580954 157.056331,29.4580954 C161.402589,29.4580954 164.557152,26.8548404 164.557152,23.2684129 C164.557152,18.8643303 160.444443,17.8169373 157.723041,17.123089" id="Fill-16"></path>
                        <path d="M12.2973456,9.11814586 L7.87390414,9.11814586 C7.89586166,7.48747006 8.27978551,6.31759424 9.01702575,5.63897358 C9.78686959,4.93122188 11.0743785,4.64322189 12.8363029,4.77629775 L14.24358,4.88686326 L14.24358,0.23384275 L13.0372474,0.143139305 C9.94589524,-0.0945434447 7.48598802,0.607911701 5.72140216,2.23262888 C4.02135808,3.80040813 3.10912308,6.17922183 3.07918101,9.11814586 L0.373748841,9.11814586 L0.373748841,13.6658974 L3.07918101,13.6658974 L3.07918101,29.2523244 L7.87257338,29.2523244 L7.87257338,13.6658974 L12.2973456,13.6658974 L12.2973456,9.11814586 Z" id="Fill-17"></path>
                    </g>
                    <g id="Group">
                        <path d="M29.6878613,32 L2.31213873,32 C1.03583815,32 0,30.9649076 0,29.6878056 L0,2.31219442 C0,1.0358631 1.03583815,0 2.31213873,0 L29.6878613,0 C30.9641618,0 32,1.0358631 32,2.31219442 L32,29.6878056 C32,30.9649076 30.9641618,32 29.6878613,32" id="bck-logo" fill="#55F0C8"></path>
                        <polygon id="F" fill="#323C52" points="27.4865866 23.9853034 30 21.4775925 16.4875919 8 3 21.4721779 5.51418888 23.9798888 11.4786018 18.0308436 17.4631778 24 19.9773667 21.4922891 13.9834846 15.5138506 16.4875919 13.0154218"></polygon>
                    </g>
                </g>
            </g>
        </g>
    </g>
</svg>